<svg width="30" height="26" viewBox="0 0 30 26" fill="none" xmlns="http://www.w3.org/2000/svg">
<path d="M29.7031 26H0.703125V0H29.7031V26Z" stroke="#E5E7EB"/>
<path d="M28.2739 5.27109L25.389 0.665234C25.1322 0.253906 24.674 0 24.1857 0H6.22178C5.73341 0 5.27525 0.253906 5.01848 0.665234L2.12855 5.27109C0.638267 7.64766 1.95736 10.9535 4.74157 11.3344C4.94296 11.3598 5.14938 11.375 5.35077 11.375C6.66483 11.375 7.83289 10.7961 8.63341 9.90234C9.43393 10.7961 10.602 11.375 11.916 11.375C13.2301 11.375 14.3982 10.7961 15.1987 9.90234C15.9992 10.7961 17.1673 11.375 18.4813 11.375C19.8004 11.375 20.9634 10.7961 21.764 9.90234C22.5695 10.7961 23.7325 11.375 25.0466 11.375C25.253 11.375 25.4544 11.3598 25.6558 11.3344C28.4501 10.9586 29.7742 7.65273 28.2789 5.27109H28.2739ZM25.8622 12.9441H25.8572C25.5904 12.9797 25.3185 13 25.0416 13C24.4173 13 23.8181 12.9035 23.2593 12.7309V19.5H7.14816V12.7258C6.58428 12.9035 5.98011 13 5.3558 13C5.07889 13 4.80198 12.9797 4.53514 12.9441H4.53011C4.32368 12.9137 4.1223 12.8781 3.92594 12.8273V19.5V22.75C3.92594 24.5426 5.37091 26 7.14816 26H23.2593C25.0365 26 26.4815 24.5426 26.4815 22.75V19.5V12.8273C26.2801 12.8781 26.0787 12.9187 25.8622 12.9441Z" fill="#79FCC1"/>
</svg>
