<svg width="34" height="27" viewBox="0 0 34 27" fill="none" xmlns="http://www.w3.org/2000/svg">
<g clip-path="url(#clip0_3607_4421)">
<path d="M5.61406 6.75C5.61406 5.02609 6.30942 3.37279 7.54716 2.15381C8.7849 0.93482 10.4636 0.25 12.2141 0.25C13.9645 0.25 15.6432 0.93482 16.881 2.15381C18.1187 3.37279 18.8141 5.02609 18.8141 6.75C18.8141 8.47391 18.1187 10.1272 16.881 11.3462C15.6432 12.5652 13.9645 13.25 12.2141 13.25C10.4636 13.25 8.7849 12.5652 7.54716 11.3462C6.30942 10.1272 5.61406 8.47391 5.61406 6.75ZM0.664062 24.7418C0.664062 19.7398 4.77875 15.6875 9.85766 15.6875H14.5705C19.6494 15.6875 23.7641 19.7398 23.7641 24.7418C23.7641 25.5746 23.0783 26.25 22.2327 26.25H2.19547C1.34984 26.25 0.664062 25.5746 0.664062 24.7418ZM26.6516 16.0938V12.8438H23.3516C22.6658 12.8438 22.1141 12.3004 22.1141 11.625C22.1141 10.9496 22.6658 10.4062 23.3516 10.4062H26.6516V7.15625C26.6516 6.48086 27.2033 5.9375 27.8891 5.9375C28.5748 5.9375 29.1266 6.48086 29.1266 7.15625V10.4062H32.4266C33.1123 10.4062 33.6641 10.9496 33.6641 11.625C33.6641 12.3004 33.1123 12.8438 32.4266 12.8438H29.1266V16.0938C29.1266 16.7691 28.5748 17.3125 27.8891 17.3125C27.2033 17.3125 26.6516 16.7691 26.6516 16.0938Z" fill="#FACC15"/>
</g>
<defs>
<clipPath id="clip0_3607_4421">
<path d="M0.664062 0.25H33.6641V26.25H0.664062V0.25Z" fill="white"/>
</clipPath>
</defs>
</svg>
