<svg width="35" height="31" viewBox="0 0 35 31" fill="none" xmlns="http://www.w3.org/2000/svg">
<g clip-path="url(#clip0_3607_4428)">
<path d="M19.1928 1.80469C18.8822 1.16016 18.226 0.75 17.5053 0.75C16.7846 0.75 16.1342 1.16016 15.8178 1.80469L12.0502 9.55664L3.63612 10.7988C2.93299 10.9043 2.34706 11.3965 2.13026 12.0703C1.91346 12.7441 2.08924 13.4883 2.59315 13.9863L8.69862 20.0273L7.25721 28.5645C7.14003 29.2676 7.43299 29.9824 8.01307 30.3984C8.59315 30.8145 9.36073 30.8672 9.99354 30.5332L17.5111 26.5195L25.0287 30.5332C25.6615 30.8672 26.4291 30.8203 27.0092 30.3984C27.5892 29.9766 27.8822 29.2676 27.765 28.5645L26.3178 20.0273L32.4232 13.9863C32.9271 13.4883 33.1088 12.7441 32.8861 12.0703C32.6635 11.3965 32.0834 10.9043 31.3803 10.7988L22.9603 9.55664L19.1928 1.80469Z" fill="#FF9191"/>
</g>
<defs>
<clipPath id="clip0_3607_4428">
<path d="M0.625 0.75H34.375V30.75H0.625V0.75Z" fill="white"/>
</clipPath>
</defs>
</svg>
